<svg width="46" height="45" viewBox="0 0 46 45" fill="none" xmlns="http://www.w3.org/2000/svg">
<g filter="url(#filter0_d_169_6576)">
<path d="M6 10.0005C6 5.58221 9.58172 2.00049 14 2.00049H32C36.4183 2.00049 40 5.58221 40 10.0005V28.0005C40 32.4188 36.4183 36.0005 32 36.0005H14C9.58172 36.0005 6 32.4188 6 28.0005V10.0005Z" fill="url(#paint0_linear_169_6576)"/>
</g>
<g clip-path="url(#clip0_169_6576)">
<path d="M27.1668 26.5005V24.8338C27.1668 23.9498 26.8156 23.1019 26.1905 22.4768C25.5654 21.8517 24.7176 21.5005 23.8335 21.5005H17.1668C16.2828 21.5005 15.4349 21.8517 14.8098 22.4768C14.1847 23.1019 13.8335 23.9498 13.8335 24.8338V26.5005M32.1668 26.5005V24.8338C32.1663 24.0953 31.9205 23.3778 31.468 22.7941C31.0155 22.2104 30.3819 21.7935 29.6668 21.6088M26.3335 11.6088C27.0505 11.7924 27.686 12.2094 28.1399 12.7941C28.5937 13.3788 28.84 14.0978 28.84 14.838C28.84 15.5781 28.5937 16.2972 28.1399 16.8819C27.686 17.4666 27.0505 17.8836 26.3335 18.0672M23.8335 14.8338C23.8335 16.6748 22.3411 18.1672 20.5002 18.1672C18.6592 18.1672 17.1668 16.6748 17.1668 14.8338C17.1668 12.9929 18.6592 11.5005 20.5002 11.5005C22.3411 11.5005 23.8335 12.9929 23.8335 14.8338Z" stroke="#344054" stroke-width="2" stroke-linecap="round" stroke-linejoin="round"/>
<path d="M27.1668 26.5005V24.8338C27.1668 23.9498 26.8156 23.1019 26.1905 22.4768C25.5654 21.8517 24.7176 21.5005 23.8335 21.5005H17.1668C16.2828 21.5005 15.4349 21.8517 14.8098 22.4768C14.1847 23.1019 13.8335 23.9498 13.8335 24.8338V26.5005M32.1668 26.5005V24.8338C32.1663 24.0953 31.9205 23.3778 31.468 22.7941C31.0155 22.2104 30.3819 21.7935 29.6668 21.6088M26.3335 11.6088C27.0505 11.7924 27.686 12.2094 28.1399 12.7941C28.5937 13.3788 28.84 14.0978 28.84 14.838C28.84 15.5781 28.5937 16.2972 28.1399 16.8819C27.686 17.4666 27.0505 17.8836 26.3335 18.0672M23.8335 14.8338C23.8335 16.6748 22.3411 18.1672 20.5002 18.1672C18.6592 18.1672 17.1668 16.6748 17.1668 14.8338C17.1668 12.9929 18.6592 11.5005 20.5002 11.5005C22.3411 11.5005 23.8335 12.9929 23.8335 14.8338Z" stroke="white" stroke-width="2" stroke-linecap="round" stroke-linejoin="round"/>
</g>
<defs>
<filter id="filter0_d_169_6576" x="0.5" y="0.000488043" width="45" height="45" filterUnits="userSpaceOnUse" color-interpolation-filters="sRGB">
<feFlood flood-opacity="0" result="BackgroundImageFix"/>
<feColorMatrix in="SourceAlpha" type="matrix" values="0 0 0 0 0 0 0 0 0 0 0 0 0 0 0 0 0 0 127 0" result="hardAlpha"/>
<feOffset dy="3.5"/>
<feGaussianBlur stdDeviation="2.75"/>
<feColorMatrix type="matrix" values="0 0 0 0 0 0 0 0 0 0 0 0 0 0 0 0 0 0 0.02 0"/>
<feBlend mode="normal" in2="BackgroundImageFix" result="effect1_dropShadow_169_6576"/>
<feBlend mode="normal" in="SourceGraphic" in2="effect1_dropShadow_169_6576" result="shape"/>
</filter>
<linearGradient id="paint0_linear_169_6576" x1="6" y1="36.0005" x2="43.4941" y2="31.57" gradientUnits="userSpaceOnUse">
<stop stop-color="#FF8A00"/>
<stop offset="1" stop-color="#FFC000"/>
</linearGradient>
<clipPath id="clip0_169_6576">
<rect width="20" height="20" fill="white" transform="translate(13 9.00049)"/>
</clipPath>
</defs>
</svg>
