<svg width="98" height="21" viewBox="0 0 98 21" fill="none" xmlns="http://www.w3.org/2000/svg">
<path d="M0.923295 4.38707V1.09091H16.4531V4.38707H10.6641V20H6.71236V4.38707H0.923295ZM17.4641 20V5.81818H21.2773V8.29261H21.4251C21.6836 7.4124 22.1175 6.74763 22.7269 6.2983C23.3363 5.8428 24.038 5.61506 24.832 5.61506C25.029 5.61506 25.2414 5.62737 25.4691 5.65199C25.6969 5.67661 25.8969 5.71046 26.0692 5.75355V9.24361C25.8846 9.18821 25.6291 9.13897 25.3029 9.09588C24.9767 9.05279 24.6781 9.03125 24.4073 9.03125C23.8287 9.03125 23.3117 9.15743 22.8562 9.4098C22.4068 9.65601 22.0498 10.0007 21.7852 10.4439C21.5266 10.8871 21.3974 11.398 21.3974 11.9766V20H17.4641ZM28.1028 20V5.81818H31.8514V8.32031H32.0176C32.313 7.48935 32.8055 6.83381 33.4949 6.35369C34.1842 5.87358 35.0091 5.63352 35.9693 5.63352C36.9418 5.63352 37.7697 5.87666 38.4529 6.36293C39.1362 6.84304 39.5917 7.4955 39.8194 8.32031H39.9672C40.2565 7.50781 40.7797 6.85843 41.5368 6.37216C42.3 5.87973 43.2018 5.63352 44.242 5.63352C45.5654 5.63352 46.6395 6.05516 47.4643 6.89844C48.2953 7.73556 48.7108 8.92353 48.7108 10.4624V20H44.7868V11.2379C44.7868 10.45 44.5775 9.85914 44.1589 9.4652C43.7404 9.07126 43.2172 8.87429 42.5893 8.87429C41.8753 8.87429 41.3182 9.10204 40.9181 9.55753C40.5181 10.0069 40.318 10.6009 40.318 11.3395V20H36.5048V11.1548C36.5048 10.4593 36.3047 9.9053 35.9047 9.4929C35.5107 9.08049 34.9906 8.87429 34.3443 8.87429C33.9073 8.87429 33.5133 8.98509 33.1625 9.20668C32.8178 9.42211 32.5439 9.7268 32.3407 10.1207C32.1376 10.5085 32.036 10.964 32.036 11.4872V20H28.1028ZM58.2807 20.277C56.8219 20.277 55.5662 19.9815 54.5137 19.3906C53.4673 18.7936 52.6609 17.9503 52.0946 16.8608C51.5283 15.7652 51.2452 14.4695 51.2452 12.9737C51.2452 11.5149 51.5283 10.2346 52.0946 9.13281C52.6609 8.03101 53.458 7.17235 54.486 6.55682C55.5201 5.94129 56.7327 5.63352 58.1238 5.63352C59.0594 5.63352 59.9303 5.78433 60.7367 6.08594C61.5492 6.38139 62.257 6.82765 62.8603 7.42472C63.4696 8.02178 63.9436 8.77273 64.2821 9.67756C64.6207 10.5762 64.79 11.6288 64.79 12.8352V13.9155H52.8148V11.478H61.0875C61.0875 10.9117 60.9644 10.41 60.7182 9.97301C60.472 9.53598 60.1304 9.19437 59.6934 8.94815C59.2625 8.69579 58.7608 8.5696 58.1884 8.5696C57.5913 8.5696 57.062 8.7081 56.6003 8.98508C56.1448 9.25592 55.7878 9.62216 55.5293 10.0838C55.2708 10.5393 55.1384 11.0471 55.1323 11.6072V13.9247C55.1323 14.6264 55.2615 15.2327 55.5201 15.7436C55.7847 16.2545 56.1571 16.6484 56.6373 16.9254C57.1174 17.2024 57.6867 17.3409 58.3453 17.3409C58.7824 17.3409 59.1825 17.2794 59.5456 17.1562C59.9088 17.0331 60.2196 16.8485 60.4782 16.6023C60.7367 16.3561 60.9337 16.0545 61.0691 15.6974L64.7069 15.9375C64.5222 16.8116 64.1436 17.5748 63.5712 18.2273C63.0049 18.8736 62.2724 19.3783 61.3738 19.7415C60.4812 20.0985 59.4502 20.277 58.2807 20.277ZM67.3567 20V5.81818H71.1699V8.29261H71.3176C71.5762 7.4124 72.0101 6.74763 72.6195 6.2983C73.2289 5.8428 73.9306 5.61506 74.7246 5.61506C74.9216 5.61506 75.1339 5.62737 75.3617 5.65199C75.5894 5.67661 75.7895 5.71046 75.9618 5.75355V9.24361C75.7772 9.18821 75.5217 9.13897 75.1955 9.09588C74.8693 9.05279 74.5707 9.03125 74.2999 9.03125C73.7213 9.03125 73.2042 9.15743 72.7488 9.4098C72.2994 9.65601 71.9424 10.0007 71.6777 10.4439C71.4192 10.8871 71.29 11.398 71.29 11.9766V20H67.3567ZM77.9954 20V5.81818H81.9286V20H77.9954ZM79.9712 3.99006C79.3865 3.99006 78.8848 3.79616 78.4663 3.40838C78.0539 3.01444 77.8477 2.54356 77.8477 1.99574C77.8477 1.45407 78.0539 0.989346 78.4663 0.601562C78.8848 0.207622 79.3865 0.0106524 79.9712 0.0106524C80.556 0.0106524 81.0546 0.207622 81.467 0.601562C81.8855 0.989346 82.0948 1.45407 82.0948 1.99574C82.0948 2.54356 81.8855 3.01444 81.467 3.40838C81.0546 3.79616 80.556 3.99006 79.9712 3.99006ZM91.487 20.277C90.0344 20.277 88.7849 19.9692 87.7385 19.3537C86.6982 18.732 85.898 17.8703 85.3379 16.7685C84.7839 15.6667 84.5069 14.3987 84.5069 12.9645C84.5069 11.5118 84.787 10.2377 85.3471 9.14204C85.9134 8.04025 86.7167 7.18158 87.7569 6.56605C88.7972 5.94437 90.0344 5.63352 91.4686 5.63352C92.7058 5.63352 93.7891 5.85819 94.7186 6.30753C95.648 6.75686 96.3836 7.38778 96.9252 8.20028C97.4669 9.01278 97.7654 9.96686 97.8208 11.0625H94.1092C94.0046 10.3546 93.7276 9.78527 93.2782 9.3544C92.8351 8.91738 92.2534 8.69886 91.5332 8.69886C90.9238 8.69886 90.3914 8.86506 89.9359 9.19744C89.4866 9.52367 89.1357 10.0007 88.8833 10.6286C88.631 11.2564 88.5048 12.0166 88.5048 12.9091C88.5048 13.8139 88.6279 14.5833 88.8741 15.2173C89.1265 15.8513 89.4804 16.3345 89.9359 16.6669C90.3914 16.9993 90.9238 17.1655 91.5332 17.1655C91.9825 17.1655 92.3857 17.0732 92.7427 16.8885C93.1059 16.7038 93.4044 16.4361 93.6383 16.0852C93.8784 15.7282 94.0353 15.3004 94.1092 14.8018H97.8208C97.7593 15.8852 97.4638 16.8393 96.9345 17.6641C96.4113 18.4827 95.688 19.1229 94.7647 19.5845C93.8414 20.0462 92.7489 20.277 91.487 20.277Z" fill="url(#paint0_linear_47_12133)"/>
<defs>
<linearGradient id="paint0_linear_47_12133" x1="-1.9644e-07" y1="21" x2="82.48" y2="-27.2436" gradientUnits="userSpaceOnUse">
<stop stop-color="#FF8A00"/>
<stop offset="1" stop-color="#FFC000"/>
</linearGradient>
</defs>
</svg>
